# xmcd
#
# Track frame offsets:
#	150
#	20662
#	36914
#	58289
#	83248
#	99312
#	114979
#	133348
#	150657
#	164756
#	182331
#	198958
#	215499
#	230141
#
# Disc length: 3323 seconds
#
# Revision: 0
# Processed by: cddbd v1.5.2PL0 Copyright (c) Steve Scherf et al.
# Submitted via: dBpowerAMP V4.0
#
DISCID=c50cf90e
DTITLE=Billy Forrest - Dream On
DYEAR=1900
DGENRE=Country
TTITLE0=Dream on (with Bobby Louw)
TTITLE1=Lazy life
TTITLE2=Love ain't easy (on my mind)
TTITLE3=Pelican pie
TTITLE4=The last thing on my mind
TTITLE5=Never be anyone else but you
TTITLE6=Help me make it through the night
TTITLE7=The coast of Colorado
TTITLE8=Ready for the times to get better
TTITLE9=Angels of fire
TTITLE10=That's what I call love
TTITLE11=Let's ride
TTITLE12=Time stood still
TTITLE13=Only love can show the way (with Sally Vaughn)
EXTD=
EXTT0=
EXTT1=
EXTT2=
EXTT3=
EXTT4=
EXTT5=
EXTT6=
EXTT7=
EXTT8=
EXTT9=
EXTT10=
EXTT11=
EXTT12=
EXTT13=
PLAYORDER=
